<?xml version="1.0" encoding="iso-8859-1"?>
<!DOCTYPE svg PUBLIC "-//W3C//DTD SVG 1.1//EN" "http://www.w3.org/Graphics/SVG/1.1/DTD/svg11.dtd">
<svg 
 version="1.1" xmlns="http://www.w3.org/2000/svg" xmlns:xlink="http://www.w3.org/1999/xlink" x="0px" y="0px" width="512px"
	 height="512px" viewBox="0 0 512 512" style="enable-background:new 0 0 512 512;" xml:space="preserve"
><g id="afcae5a789ccd549f9c6e2a2f8114e32"><g></g><g fill="#8d8d8d"><path style="display: inline;" d="M256.004,43.083C114.893,43.083,0.5,120.519,0.5,216.045c0,81.731,83.786,150.173,196.378,168.241
		c-9.166,30.574-24.448,66.624-48.439,84.63c46.222,0.076,91.804-42.583,123.051-80.268c133.888-5.423,240.01-80.617,240.01-172.604
		C511.5,120.519,397.106,43.083,256.004,43.083z M133.577,256c-14.705,0-26.619-14.297-26.619-31.938s11.914-31.938,26.619-31.938
		c14.692,0,26.606,14.297,26.606,31.938S148.27,256,133.577,256z M255.996,256c-14.704,0-26.618-14.297-26.618-31.938
		s11.914-31.938,26.618-31.938c14.705,0,26.619,14.297,26.619,31.938S270.7,256,255.996,256z M378.415,256
		c-14.692,0-26.607-14.297-26.607-31.938s11.915-31.938,26.607-31.938c14.704,0,26.618,14.297,26.618,31.938
		S393.119,256,378.415,256z"></path></g></g></svg>