<?xml version="1.0" encoding="iso-8859-1"?>
<!DOCTYPE svg PUBLIC "-//W3C//DTD SVG 1.1//EN" "http://www.w3.org/Graphics/SVG/1.1/DTD/svg11.dtd">
<svg 
 version="1.1" xmlns="http://www.w3.org/2000/svg" xmlns:xlink="http://www.w3.org/1999/xlink" x="0px" y="0px" width="512px"
	 height="512px" viewBox="0 0 512 512" enable-background="new 0 0 512 512" xml:space="preserve"
><g id="2020da7681f0d538108a21c60200318c"><g></g><g fill="#ffffff"><path display="inline" d="M405.042,256c0,82.31-66.732,149.042-149.042,149.042S106.958,338.31,106.958,256
		S173.69,106.958,256,106.958S405.042,173.69,405.042,256z M256,85.667c11.761,0,21.292-12.708,21.292-28.39
		C277.292,41.599,267.761,0.5,256,0.5c-11.76,0-21.292,41.099-21.292,56.776C234.708,72.958,244.24,85.667,256,85.667z M256,426.329
		c-11.76,0.004-21.292,12.709-21.292,28.391c0,15.678,9.531,56.776,21.292,56.78c11.761,0,21.292-41.103,21.292-56.78
		S267.761,426.333,256,426.329z M85.667,256c0-11.76-12.708-21.292-28.39-21.292C41.599,234.708,0.5,244.24,0.5,256
		c0,11.761,41.099,21.292,56.776,21.292C72.958,277.292,85.667,267.761,85.667,256z M454.72,234.708
		c-15.678,0-28.387,9.531-28.391,21.292c0.004,11.761,12.709,21.292,28.391,21.292c15.678,0,56.776-9.531,56.78-21.292
		C511.5,244.24,470.397,234.708,454.72,234.708z M90.303,391.585c-11.086,11.086-54.485,67.967-46.168,76.279
		c8.313,8.317,65.193-35.081,76.28-46.168c11.086-11.091,13.336-26.813,5.019-35.131
		C117.118,378.248,101.394,380.498,90.303,391.585z M422.74,119.372c11.087-11.086,57.496-70.978,49.183-79.295
		c-8.313-8.317-68.208,38.096-79.294,49.183c-11.083,11.086-13.333,26.81-5.02,35.131
		C395.931,132.704,411.653,130.458,422.74,119.372z M386.565,386.565c-8.317,8.317-6.063,24.04,5.023,35.131
		c11.087,11.087,67.967,54.485,76.275,46.168c8.317-8.313-35.081-65.193-46.168-76.279
		C410.61,380.498,394.883,378.248,386.565,386.565z M124.395,124.391c8.309-8.321,6.063-24.045-5.023-35.131
		c-11.086-11.087-70.978-57.496-79.295-49.183s38.101,68.208,49.187,79.295C100.351,130.454,116.07,132.704,124.395,124.391z"></path></g></g></svg>