<svg width="77" height="12" xmlns="http://www.w3.org/2000/svg" xmlns:xlink="http://www.w3.org/1999/xlink"><defs><path d="M2.549 21.995a.588.588 0 0 1-.771-.226.523.523 0 0 1 .24-.726l10.312-5.107a8.31 8.31 0 0 1 6.91-.192l13.088 5.58a7.114 7.114 0 0 0 5.286.107l22.863-8.653a8.307 8.307 0 0 1 6.78.41l10.423 5.494a.522.522 0 0 1 .22.733.59.59 0 0 1-.777.206L66.7 14.127a7.103 7.103 0 0 0-5.798-.35L38.04 22.429a8.32 8.32 0 0 1-6.183-.125l-13.087-5.58a7.105 7.105 0 0 0-5.909.165L2.55 21.995z" id="a"/></defs><g transform="translate(-1 -11.674)" fill="none" fill-rule="evenodd"><mask id="b" fill="#495157"><use xlink:href="#a"/></mask><use fill="#495157" fill-rule="nonzero" xlink:href="#a"/><g mask="url(#b)" fill="#495157"><path d="M0 0h80v34H0z"/></g></g></svg>