<svg width="338" height="136" xmlns="http://www.w3.org/2000/svg" xmlns:xlink="http://www.w3.org/1999/xlink"><defs><path d="M7.799 151.27a2.436 2.436 0 0 1-3.535.065 2.665 2.665 0 0 1-.063-3.67L58.103 89.72c4.795-5.155 12.708-5.3 17.675-.322.07.07 5.838 6.268 17.305 18.592 2.877 3.093 7.625 3.18 10.605.193.042-.042 20.514-22.049 61.417-66.02 4.795-5.155 12.709-5.3 17.675-.322.07.07 6.632 7.12 19.685 21.15 2.877 3.093 7.625 3.18 10.605.194.042-.043 13.367-14.366 39.976-42.97 4.795-5.155 12.708-5.3 17.675-.322.07.07 24.43 26.254 73.078 78.551a2.665 2.665 0 0 1-.063 3.67 2.436 2.436 0 0 1-3.535-.065l-72.767-78.23c-3.166-3.179-7.914-3.092-10.791 0l-39.79 42.777c-5.277 5.3-13.19 5.155-17.985 0l-19.375-20.828c-3.166-3.18-7.914-3.093-10.79 0l-61.232 65.827c-5.277 5.3-13.19 5.155-17.985 0L72.49 93.324c-3.166-3.18-7.914-3.093-10.791 0L7.799 151.27z" id="a"/></defs><g transform="translate(-7 -16)" fill="none" fill-rule="evenodd"><mask id="b" fill="#495157"><use xlink:href="#a"/></mask><use fill="#495157" fill-rule="nonzero" xlink:href="#a"/><g mask="url(#b)"><path fill="#495157" d="M-1-1.038h349v166H-1z"/><path fill="#495157" d="M-1-1.038h349v166H-1z"/></g></g></svg>