<?xml version="1.0" encoding="iso-8859-1"?>
<!DOCTYPE svg PUBLIC "-//W3C//DTD SVG 1.1//EN" "http://www.w3.org/Graphics/SVG/1.1/DTD/svg11.dtd">
<svg 
 version="1.1" xmlns="http://www.w3.org/2000/svg" xmlns:xlink="http://www.w3.org/1999/xlink" x="0px" y="0px" width="512px"
	 height="512px" viewBox="0 0 512 512" enable-background="new 0 0 512 512" xml:space="preserve"
><g id="e6c6b53d3c8160b22dad35a0f70b0894"><g></g><g fill="#ffffff"><path display="inline" d="M256,0.5C145.564,0.5,56.044,55.21,56.044,122.696v44.435c0,67.485,89.521,122.196,199.956,122.196
		c110.437,0,199.956-54.71,199.956-122.196v-44.435C455.956,55.21,366.437,0.5,256,0.5z M383.489,186.352
		C349.852,206.909,304.574,218.23,256,218.23s-93.851-11.321-127.489-31.879c-17.105-10.456-45.806-32.627-45.806-63.656
		s28.7-53.2,45.806-63.656C162.149,38.482,207.426,27.161,256,27.161s93.852,11.321,127.489,31.879
		c17.106,10.456,45.807,32.627,45.807,63.656S400.596,175.896,383.489,186.352z M271.088,159.192h29.347v19.047h-90.228v-19.047
		h29.547V91.153l-30.341,5.027V76.675l61.675-9.522V159.192z M455.853,231.218c0.026,0.854,0.104,1.705,0.104,2.564v44.435
		c0,67.485-89.52,122.195-199.956,122.195c-110.436,0-199.956-54.71-199.956-122.195v-44.435c0-0.859,0.078-1.71,0.104-2.564
		c9.877,13.252,22.773,25.296,38.126,35.812c9.897,13.852,24.092,24.205,34.237,30.41c33.639,20.556,78.915,31.877,127.489,31.877
		s93.852-11.321,127.489-31.877c10.146-6.205,24.34-16.559,34.237-30.41C433.079,256.515,445.976,244.47,455.853,231.218z
		 M455.853,342.305c0.026,0.855,0.104,1.706,0.104,2.564v44.436c0,67.485-89.52,122.195-199.956,122.195
		c-110.436,0-199.956-54.71-199.956-122.195v-44.436c0-0.858,0.078-1.709,0.104-2.564c9.877,13.253,22.773,25.294,38.126,35.813
		c9.897,13.852,24.092,24.205,34.237,30.41c33.639,20.556,78.915,31.877,127.489,31.877s93.852-11.321,127.489-31.877
		c10.146-6.205,24.34-16.559,34.237-30.41C433.079,367.599,445.976,355.558,455.853,342.305z"></path></g></g></svg>