<?xml version="1.0" encoding="iso-8859-1"?>
<!DOCTYPE svg PUBLIC "-//W3C//DTD SVG 1.1//EN" "http://www.w3.org/Graphics/SVG/1.1/DTD/svg11.dtd">
<svg 
 version="1.1" xmlns="http://www.w3.org/2000/svg" xmlns:xlink="http://www.w3.org/1999/xlink" x="0px" y="0px" width="512px"
	 height="512px" viewBox="0 0 512 512" style="enable-background:new 0 0 512 512;" xml:space="preserve"
><g id="7935ec95c421cee6d86eb22ecd157c1b"><g></g><g fill="#ffffff"><path style="display: inline;" d="M454.723,141.498v351.076c0,10.409-8.518,18.926-18.926,18.926H76.203
		c-10.409,0-18.926-8.517-18.926-18.926v-56.777h37.852v37.852H416.87V151.908h-86.109c-15.097,0-27.445-12.354-27.445-27.446
		v-86.11H95.129v94.63H57.277V19.425C57.277,9.017,65.794,0.5,76.203,0.5h236.102v0.066c3.016,0.277,6.587,2.24,10.42,6.069
		l125.861,125.861c3.247,3.246,5.154,6.307,5.833,9.001H454.723z M284.39,227.611l-56.779-56.778l-56.777,56.778l-56.777-56.778
		l-56.778,56.778l56.778,56.777l-56.778,56.778l56.778,56.777l56.777-56.777l56.777,56.777l56.779-56.777l-56.779-56.778
		L284.39,227.611z"></path></g></g></svg>