<?xml version="1.0" encoding="iso-8859-1"?>
<!DOCTYPE svg PUBLIC "-//W3C//DTD SVG 1.1//EN" "http://www.w3.org/Graphics/SVG/1.1/DTD/svg11.dtd">
<svg 
 version="1.1" xmlns="http://www.w3.org/2000/svg" xmlns:xlink="http://www.w3.org/1999/xlink" x="0px" y="0px" width="512px"
	 height="512px" viewBox="0 0 512 512" enable-background="new 0 0 512 512" xml:space="preserve"
><g id="1b1c9b208ed950244c86edd4d2035bbd"><g></g><g fill="#f5f6fa"><path display="inline" d="M469.744,205.066l-22.946-4.591c-2.629-0.526-5.194-0.759-7.693-0.777
		c-3.194-10.448-7.307-20.668-12.322-30.549c2.005-1.938,3.867-4.152,5.539-6.662l12.975-19.47
		c12.991-19.487,10.072-48.979-6.487-65.539c-16.559-16.563-46.051-19.483-65.542-6.491L353.8,83.966
		c-1.929,1.287-3.646,2.711-5.239,4.2c-11.536-6.383-23.666-11.567-36.263-15.42c-0.028-2.452-0.258-4.965-0.773-7.543
		l-4.591-22.947C302.343,19.292,279.421,0.5,256,0.5s-46.34,18.792-50.934,41.756l-4.591,22.947
		c-0.516,2.578-0.744,5.092-0.771,7.543c-11.627,3.556-22.87,8.215-33.601,13.929c-1.133-0.946-2.331-1.855-3.614-2.709
		l-19.468-12.979c-19.489-12.992-48.983-10.072-65.544,6.491c-16.56,16.559-19.481,46.052-6.489,65.539l12.98,19.47
		c0.872,1.308,1.801,2.524,2.768,3.676c-5.722,10.798-10.321,22.034-13.837,33.535c-2.5,0.019-5.065,0.251-7.695,0.777
		l-22.947,4.591C19.291,209.657,0.5,232.579,0.5,256s18.791,46.343,41.756,50.934l22.947,4.591c2.63,0.524,5.196,0.757,7.695,0.778
		c3.807,12.454,8.926,24.585,15.322,36.199c-1.51,1.605-2.951,3.34-4.252,5.294l-12.98,19.471
		c-12.992,19.486-10.07,48.979,6.489,65.538c16.561,16.563,46.056,19.482,65.544,6.491l19.468-12.979
		c2.487-1.659,4.687-3.501,6.612-5.48c9.827,5.011,20.046,9.19,30.603,12.417c0.027,2.449,0.255,4.965,0.771,7.544l4.591,22.946
		C209.66,492.708,232.579,511.5,256,511.5s46.343-18.792,50.934-41.756l4.591-22.946c0.516-2.579,0.745-5.091,0.773-7.544
		c11.615-3.552,22.852-8.205,33.572-13.914c2.225,2.549,4.836,4.915,7.93,6.978l19.467,12.979
		c19.491,12.991,48.983,10.072,65.542-6.491c16.56-16.56,19.479-46.052,6.487-65.538l-12.975-19.471
		c-2.079-3.119-4.466-5.747-7.04-7.984c5.714-10.787,10.309-22.015,13.823-33.509c2.499-0.021,5.064-0.254,7.693-0.778l22.946-4.591
		C492.712,302.343,511.5,279.421,511.5,256S492.712,209.657,469.744,205.066z M256.002,362.458
		c-28.438,0-55.175-11.074-75.28-31.176c-41.508-41.511-41.508-109.049-0.002-150.56c20.108-20.106,46.844-31.181,75.282-31.181
		c28.434,0,55.169,11.074,75.275,31.181c41.511,41.511,41.511,109.049,0,150.56C311.176,351.384,284.44,362.458,256.002,362.458z"></path></g></g></svg>