<?xml version="1.0" encoding="iso-8859-1"?>
<!DOCTYPE svg PUBLIC "-//W3C//DTD SVG 1.1//EN" "http://www.w3.org/Graphics/SVG/1.1/DTD/svg11.dtd">
<svg 
 version="1.1" xmlns="http://www.w3.org/2000/svg" xmlns:xlink="http://www.w3.org/1999/xlink" x="0px" y="0px" width="512px"
	 height="512px" viewBox="0 0 512 512" enable-background="new 0 0 512 512" xml:space="preserve"
><g id="b75708d097f2188dff6617b0f00f0773"><g></g><path display="inline" d="M122.167,231.667v48.667c0,26.767-21.9,48.667-48.667,48.667H49.167C22.4,329,0.5,307.1,0.5,280.333
		v-48.667C0.5,204.9,22.4,183,49.167,183H73.5C100.267,183,122.167,204.9,122.167,231.667z M268.167,183h-24.333
		c-26.767,0-48.667,21.9-48.667,48.667v48.667c0,26.767,21.9,48.667,48.667,48.667h24.333c26.767,0,48.666-21.9,48.666-48.667
		v-48.667C316.833,204.9,294.934,183,268.167,183z M462.833,183H438.5c-26.767,0-48.667,21.9-48.667,48.667v48.667
		c0,26.767,21.9,48.667,48.667,48.667h24.333c26.767,0,48.667-21.9,48.667-48.667v-48.667C511.5,204.9,489.6,183,462.833,183z"></path></g></svg>