<?xml version="1.0" encoding="iso-8859-1"?>
<!DOCTYPE svg PUBLIC "-//W3C//DTD SVG 1.1//EN" "http://www.w3.org/Graphics/SVG/1.1/DTD/svg11.dtd">
<svg 
 version="1.1" xmlns="http://www.w3.org/2000/svg" xmlns:xlink="http://www.w3.org/1999/xlink" x="0px" y="0px" width="512px"
	 height="512px" viewBox="0 0 512 512" style="enable-background:new 0 0 512 512;" xml:space="preserve"
><g id="afcae5a789ccd549f9c6e2a2f819b456"><g></g><path style="display: inline;" d="M341.21,0.5v42.571h98.231l-91.039,91.037c-36.743-30.193-83.771-48.328-135.041-48.328
		C95.802,85.78,0.502,181.081,0.502,298.64c0,117.56,95.3,212.86,212.859,212.86c117.56,0,212.859-95.301,212.859-212.86
		c0-51.269-18.134-98.3-48.325-135.043l91.03-91.034v98.225h42.572V0.5H341.21z M383.649,298.64
		c0,93.899-76.389,170.288-170.288,170.288c-93.899,0-170.287-76.389-170.287-170.288c0-93.896,76.388-170.287,170.287-170.287
		C307.261,128.353,383.649,204.743,383.649,298.64z"></path></g></svg>